<svg xmlns="http://www.w3.org/2000/svg" viewBox="0 0 468.823 347.695">
  <title>letter-envelope</title>
  <g id="e2957088-c48b-4bef-a669-96f51e6cb4a9" data-name="Capa 2">
    <g id="37f220f7-2cc3-4cfa-9eb8-f3861c1123eb" data-name="Capa 1">
      <g>
        <path d="M27.3,13.949c6.954,1.031,13.9,2.09,20.87,3.026A22.467,22.467,0,0,0,53.523,17c.812-.087,1.548-.871,2.483-1.439-4.989-3.878-22.368-4.906-29.2-2.033C26.977,13.68,27.125,13.922,27.3,13.949Z" fill="none"/>
        <path d="M81.639,16.972c-3.416-3.438-8.556-3.535-11.269.018A17.361,17.361,0,0,0,81.639,16.972Z" fill="none"/>
        <path d="M13.525,206.447c-1.9,10.968-4.38,21.865-1.5,32.968C14.46,228.5,15.683,217.523,13.525,206.447Z" fill="none"/>
        <path d="M122.706,122.909c-7.523-10.009-18.021-16.579-27.769-24.037C101.6,109.919,112.3,116.241,122.706,122.909Z" fill="none"/>
        <path d="M15.231,133.024c-2.121,6.077-1.423,11.857,1.433,14.753A22.929,22.929,0,0,0,15.231,133.024Z" fill="none"/>
        <path d="M313.317,154.166c-5.36,2.305-14.78,11.2-17.906,17.158A49.827,49.827,0,0,0,313.317,154.166Z" fill="none"/>
        <path d="M36.438,336.756a35.488,35.488,0,0,0,12.984-.077c5.165-.954,10.373-1.683,15.57-2.452,2.672-.394,5.361-.664,8.042-.99C64.317,329.435,46.684,331.221,36.438,336.756Z" fill="none"/>
        <path d="M413.21,63.92a42.3,42.3,0,0,1,8.948-8.415,53.374,53.374,0,0,0,12.3-12.711c-6.323,4.339-12.682,8.627-18.939,13.059a23.134,23.134,0,0,0-3.413,3.636q-6.695,7.437-13.373,14.889c-.532.593-1.041,1.208-1.56,1.814a3.7,3.7,0,0,0,2.335-.558A48.482,48.482,0,0,0,413.21,63.92Z" fill="none"/>
        <path d="M361.743,61.341a92.962,92.962,0,0,0-23.229,21.94C346.178,80.1,359.807,67.209,361.743,61.341Z" fill="none"/>
        <path d="M335.467,14.181l-.066-.967-29.227,1.921.058.857C316.238,19.226,325.918,17.67,335.467,14.181Z" fill="none"/>
        <path d="M342.167,221.569c3.33,5.305,20.411,21.676,26.848,25.5C362.581,236.623,347.769,222.7,342.167,221.569Z" fill="none"/>
        <path d="M417.2,291.345c-7.859-7.915-14.826-16.451-24.792-21.487C399.035,279.725,411.43,290.283,417.2,291.345Z" fill="none"/>
        <path d="M48.738,297.052C59.658,288.2,70.425,279.2,80.583,269.5,66.748,274.986,57.4,285.642,48.738,297.052Z" fill="none"/>
        <path d="M302.961,330.386c7.236,1.992,13.65,1.8,20.319.789C318.916,328.414,309.326,327.917,302.961,330.386Z" fill="none"/>
        <path d="M406.216,330.547c-7.569-4.893-15.818-4.375-24.158-2.954a5.741,5.741,0,0,0-1.686.978,70.931,70.931,0,0,0,9.361.533c5.058.154,9.848,1.1,14.181,4.083a12.826,12.826,0,0,0,6.077,2.036c5.609.422,11.248.448,16.876.586a10.92,10.92,0,0,0,2.126-.361c-4.98-2.6-10.167-3.154-15.428-3.134A12.891,12.891,0,0,1,406.216,330.547Z" fill="none"/>
        <path d="M456.68,124.561c-1.221,7.916-3.376,15.124-.591,23.263C458.639,139.735,459.056,128.3,456.68,124.561Z" fill="none"/>
        <path d="M130.485,217.4a42.161,42.161,0,0,0-16.674,16.062C122.248,228.41,130.063,222.241,130.485,217.4Z" fill="none"/>
        <path d="M121.059,333.339a56.327,56.327,0,0,0,26.928-1.5C138.842,329.543,129.941,331.278,121.059,333.339Z" fill="none"/>
        <path d="M201.751,331.737c5.781,2.16,23.662,1.547,27.773-.8C221.232,329.182,209.192,329.477,201.751,331.737Z" fill="none"/>
        <path d="M4.872,9.936c3.592,8.388,7.486,16.7,9.354,25.676,1.413,6.781,5.445,11.382,10.583,15.537,7.294,5.9,14.764,11.66,21.418,18.231,4.6,4.539,9.4,7.619,15.728,8.722a13.822,13.822,0,0,0,7.489-.357c2.362-.871,4.813-1.5,7.225-2.235l.213.761a2.15,2.15,0,0,1-.4.614c-.928.69-1.876,1.353-2.827,2.012-3.992,2.764-4.182,3.441-1.6,7.357a18.023,18.023,0,0,1,2.965,7.433,7.278,7.278,0,0,0,2.156,3.852c3.348,3.193,6.868,6.209,10.373,9.234Q108,124.419,128.475,142.029q21.183,18.265,42.326,36.578a110.652,110.652,0,0,1,9.727,9.318A63.344,63.344,0,0,0,195.791,200.8a85.636,85.636,0,0,1,16.521,12.607,52.193,52.193,0,0,0,13.722,9.2,17.678,17.678,0,0,0,17.668-.737,40.064,40.064,0,0,0,11.584-10.61,23.184,23.184,0,0,1,8.658-6.844,112.663,112.663,0,0,0,12.6-7.4c4.288-2.828,8.329-6.029,12.52-9.007,6.308-4.48,12.347-9.241,17.334-15.239a52.7,52.7,0,0,1,5.692-5.756q21.7-19.141,43.487-38.188c4.84-4.232,9.8-8.33,14.675-12.521a10.528,10.528,0,0,0,4.051-7.984c.093-3.256.257-3.194,3.75-4.033,1.645-.4,3.667-.388,4.319-2.985-1.85-1.523-3.743-3.081-5.637-4.638.108-.267.215-.533.322-.8a52.382,52.382,0,0,1,7.112.52c5.614,1.157,10.481.017,14.513-4.1q5.529-5.651,10.912-11.444c7.889-8.506,16.164-16.554,25.782-23.147,3.6-2.468,7-5.249,10.37-8.026a22.728,22.728,0,0,0,8.312-13.057c1.757-8.208,5.085-15.893,8.489-23.532,1.045-2.347,1.927-4.769,3.025-7.09a2.614,2.614,0,0,0-1.3-3.86,9.71,9.71,0,0,0-4.329-.886c-3.332.12-6.67.928-9.975.776a121.682,121.682,0,0,0-28.794,1.874c-5.712-.883-9.1,1.938-11.336,6.885-.566,1.256-1.27,2.766-3.24,3.053.335-3.32.65-6.447,1.015-10.058-10.072-.542-19.682-1.164-29.3-1.5a20.131,20.131,0,0,0-6.753,1.331c-3.045,1-5.987,2.326-8.95,3.566a17.36,17.36,0,0,1-11.692.882c-3.46-.972-6.929-1.94-10.314-3.139a21.084,21.084,0,0,0-8.691-1.18c-10.255.708-20.515,1.5-30.786,1.794-10.41.3-20.835.014-31.254.046a12.628,12.628,0,0,0-4.533.586c-3.66,1.453-7.262,1.142-10.989.437A46.12,46.12,0,0,0,245.6,5.585c-10.159.059-20.317.372-30.476.542-28.816.482-57.616-.265-86.4-1.448-5.127-.211-9.434,1.666-13.849,3.452.518,4.524,1.329,6.65,4.609,11.066a20.5,20.5,0,0,1,3.978,9.082,11.819,11.819,0,0,1-.223,2.456c-.657-.921-.957-1.324-1.239-1.738-3.969-5.827-7.466-12.012-13.579-16.09a11.311,11.311,0,0,1-3.59-4.433c-1.747-3.642-4.684-4.939-8.406-5.02A41.982,41.982,0,0,0,91.8,3.7a191.57,191.57,0,0,1-32.744.41c-9.221-.76-18.467-1.22-27.7-1.776C24.041,1.9,16.725,1.513,9.41,1.109a16.553,16.553,0,0,0-2.695-.072c-3.2.349-4.424,2.324-3.328,5.341C3.826,7.585,4.366,8.754,4.872,9.936ZM398.733,74.378q6.681-7.449,13.373-14.889a23.134,23.134,0,0,1,3.413-3.636c6.257-4.432,12.616-8.72,18.939-13.059a53.374,53.374,0,0,1-12.3,12.711,42.3,42.3,0,0,0-8.948,8.415,48.482,48.482,0,0,1-13.7,11.714,3.7,3.7,0,0,1-2.335.558C397.692,75.586,398.2,74.971,398.733,74.378Zm-36.99-13.037c-1.936,5.868-15.565,18.761-23.229,21.94A92.962,92.962,0,0,1,361.743,61.341ZM335.4,13.214l.066.967c-9.549,3.489-19.229,5.045-29.235,1.811l-.058-.857ZM313.317,154.166a49.827,49.827,0,0,1-17.906,17.158C298.537,165.366,307.957,156.471,313.317,154.166ZM122.706,122.909c-10.409-6.668-21.11-12.99-27.769-24.037C104.685,106.33,115.183,112.9,122.706,122.909ZM81.639,16.972a17.361,17.361,0,0,1-11.269.018C73.083,13.437,78.223,13.534,81.639,16.972ZM56.006,15.564c-.935.568-1.671,1.352-2.483,1.439a22.467,22.467,0,0,1-5.349-.028c-6.966-.936-13.916-2-20.87-3.026-.179-.027-.327-.269-.5-.418C33.638,10.658,51.017,11.686,56.006,15.564Z" fill="none" stroke="#000" stroke-miterlimit="10" stroke-width="2"/>
        <path d="M464.164,339.131c-3.865-8.133-7.914-16.273-9.377-25.212a23.385,23.385,0,0,0-9.457-15.688c-.923-.694-1.746-1.521-2.658-2.234a415.766,415.766,0,0,1-34.2-30.009c-2.025-1.974-4.129-3.882-6.333-5.65-6.252-5.015-13.167-8.319-21.439-7.989-.552.022-1.123-.443-1.779-.721.727-1.955,2.652-3.325,1.353-5.756-3.154-5.9-6.193-11.755-11.413-16.29-18.547-16.111-36.945-32.393-55.409-48.6-.834-.732-1.767-1.351-2.666-2.032a21.681,21.681,0,0,0-2.017,1.687c-6.138,6.692-13.464,11.9-20.928,16.964-3.3,2.235-6.388,4.78-9.7,6.99a41.453,41.453,0,0,1-7.372,4.1,25.647,25.647,0,0,0-9.631,6.855,96.6,96.6,0,0,1-8.651,8.787c-10.056,8.622-21.346,9.616-32.873,3.191-5.547-3.091-10.3-7.2-15.093-11.312a112.78,112.78,0,0,0-12-9c-6.076-3.942-11.8-8.189-16.556-13.734-5.122-5.974-11.482-10.594-17.592-15.736-1.748,1.45-3.358,2.716-4.891,4.07q-28.624,25.291-57.234,50.6a14.53,14.53,0,0,0-4.643,7.392c-.321,1.244-.727,2.469-1,3.724-.829,3.862-2.948,6.552-6.919,7.379-3.416.711-5.175,2.489-4.659,6.129.034.242-.418.553-.913,1.164-3.865-4.9-7.246-1.666-10.666.609a19.933,19.933,0,0,0-2.953,2.477c-3.374,3.353-6.8,6.662-10.029,10.15-8.482,9.159-16.9,18.345-27.878,24.722-2.743,1.594-5.057,3.942-7.509,6.015a11.69,11.69,0,0,0-3.763,6.976c-.79,3.9-1.415,7.908-2.836,11.59-2.583,6.694-5.657,13.2-8.613,19.748-1.3,2.871-.708,4.683,2.266,5.652a7.612,7.612,0,0,0,3.386.39c9.069-1.413,18.182-1.419,27.324-1.23a61.787,61.787,0,0,0,10.363-.7c7.377-1.1,14.708-2.6,22.227-1.687,3.443.417,6.877.92,10.316,1.374,5.489.724,10.225-.244,13.192-5.589a23.966,23.966,0,0,1,2.864-3.616c1.817-2.149,3.756-4.2,5.478-6.422,1.933-2.492,3.683-5.127,5.513-7.7.565,3.636-.617,6.651-2.3,9.5a15.737,15.737,0,0,0-2.06,10.448,30.448,30.448,0,0,0,14.558,3.013c6.173-.114,12.349-.209,18.522-.139a91.141,91.141,0,0,0,24.062-2.8,33.65,33.65,0,0,1,13.366-.64,168.023,168.023,0,0,0,31.909,1.881c10.916-.546,21.857-.6,32.781-1.009,8.994-.339,17.976-.963,26.969-1.311,5.121-.2,10.253-.086,15.38-.126a115.3,115.3,0,0,0,11.559-.185,122.5,122.5,0,0,1,26.178.053c5.5.575,11,1.117,16.516,1.522a94.62,94.62,0,0,0,10.79.313c4.726-.195,6.73-2.334,7.842-6.922a6.353,6.353,0,0,0-1.221-5.732,21.708,21.708,0,0,1-3.986-15.762,34.839,34.839,0,0,1,1.678,3.752,102.53,102.53,0,0,0,4.937,9.972c2.6,4.267,5.661,8.256,8.432,12.426a7.349,7.349,0,0,0,4.778,3.6c7.479,1.373,14.969,2.465,22.6,1.117,10.1-1.784,20.192-2.1,30.21.606a39.681,39.681,0,0,0,16.075.595c1.78-.25,3.563-.5,5.352-.661a43.174,43.174,0,0,1,15.617,1.882,8.052,8.052,0,0,0,6.955-1.174,2.616,2.616,0,0,0,1.1-3.654C464.991,340.729,464.55,339.943,464.164,339.131Zm-399.172-4.9c-5.2.769-10.4,1.5-15.57,2.452a35.488,35.488,0,0,1-12.984.077c10.246-5.535,27.879-7.321,36.6-3.519C70.353,333.563,67.664,333.833,64.992,334.227ZM48.738,297.052c8.661-11.41,18.01-22.066,31.845-27.548C70.425,279.2,59.658,288.2,48.738,297.052Zm65.073-63.586A42.161,42.161,0,0,1,130.485,217.4C130.063,222.241,122.248,228.41,113.811,233.466Zm7.248,99.873c8.882-2.061,17.783-3.8,26.928-1.5A56.327,56.327,0,0,1,121.059,333.339Zm80.692-1.6c7.441-2.26,19.481-2.555,27.773-.8C225.413,333.284,207.532,333.9,201.751,331.737Zm101.21-1.351c6.365-2.469,15.955-1.972,20.319.789C316.611,332.183,310.2,332.378,302.961,330.386Zm39.206-108.817c5.6,1.132,20.414,15.054,26.848,25.5C362.578,243.245,345.5,226.874,342.167,221.569ZM417.2,291.345c-5.77-1.062-18.165-11.62-24.792-21.487C402.374,274.894,409.341,283.43,417.2,291.345Zm9.667,44.464c-5.628-.138-11.267-.164-16.876-.586a12.826,12.826,0,0,1-6.077-2.036c-4.333-2.987-9.123-3.929-14.181-4.083a70.931,70.931,0,0,1-9.361-.533,5.741,5.741,0,0,1,1.686-.978c8.34-1.421,16.589-1.939,24.158,2.954a12.891,12.891,0,0,0,7.349,1.767c5.261-.02,10.448.529,15.428,3.134A10.92,10.92,0,0,1,426.867,335.809Z" fill="none" stroke="#000" stroke-miterlimit="10" stroke-width="2"/>
        <path d="M464.778,257.936c-.618-4.68-1.011-5.141-5.691-5.477-1.9-.136-3.844-.083-5.521-2.018l10.208-5.419c0-1.263-.114-2.676.019-4.065.7-7.284,1.212-14.6,2.284-21.829a38.1,38.1,0,0,0,.154-13.007c-.976-5.043-1.947-10.088-2.966-15.123-1.912-9.447-1.546-18.893-.277-28.383.919-6.869,1.536-13.778,2.283-20.67.138-1.278.219-2.562.389-3.836,1.28-9.584,2.022-19.228,1.111-28.852-.734-7.75-2.27-15.425-3.492-23.409l-10.167,1.868-.4-.9c1.366-1.065,2.68-2.208,4.111-3.176,1.6-1.078,3.412-1.853,4.912-3.038a6.623,6.623,0,0,0,2.479-3.221c1.747-7.9,3.684-15.775,3.6-23.958-.094-9.386-.113-18.772-.181-28.159-.008-1.081-.118-2.162-.18-3.243a7.479,7.479,0,0,0-2.316,3.529c-1.31,4.164-2.689,8.319-3.722,12.555a29.255,29.255,0,0,1-8.971,15.414,110.862,110.862,0,0,1-9.224,7.583c-10.088,7.183-19.6,14.976-27.765,24.359-3.288,3.782-6.854,7.321-10.265,11-4.318,4.654-9.117,8.377-16.132,8.232a9.179,9.179,0,0,1-6.18,5.929,3.419,3.419,0,0,0-1.724,2.2,15.622,15.622,0,0,1-5.34,8.291c-3.206,2.774-6.58,5.355-9.777,8.139q-18.328,15.957-36.571,32.013c-4.424,3.908-8.654,8.037-13.6,12.651,1.415,1.091,2.679,1.962,3.827,2.967,16.936,14.818,33.737,29.793,50.837,44.419,6.912,5.912,12.375,12.67,15.646,21.115a6.929,6.929,0,0,0,5.756,4.832c7.453,1.392,13.551,5.293,18.751,10.744,2.394,2.509,4.882,4.948,7.493,7.229,11.132,9.728,22.207,19.526,33.549,29a26.818,26.818,0,0,1,9.709,16.085,124.862,124.862,0,0,0,3.752,12.923,8.7,8.7,0,0,0,1.271,1.978,27.531,27.531,0,0,0,.887-7.756c.016-11.175-.908-22.331.061-33.534.426-4.919-.43-9.972-.937-14.941C466.1,265.276,465.265,261.627,464.778,257.936Zm-8.1-133.375c2.376,3.738,1.959,15.174-.591,23.263C453.3,139.685,455.459,132.477,456.68,124.561Z" fill="none" stroke="#000" stroke-miterlimit="10" stroke-width="2"/>
        <path d="M8.313,307.689a21.6,21.6,0,0,1,8.049-12.777c4.51-3.407,9.233-6.533,13.755-9.926a66.7,66.7,0,0,0,7.922-6.679c5.286-5.441,10.513-10.96,15.445-16.721,6.75-7.885,15.461-12.68,24.918-16.206,3.425-1.277,5.485-2.933,5.935-6.589.618-5.016,3.5-8.577,7.256-11.833,19.811-17.2,39.495-34.549,59.243-51.823a21.971,21.971,0,0,1,2.963-1.743c-1.8-1.4-2.724-2.062-3.583-2.8q-32.547-28.136-65.085-56.282c-3.892-3.363-7.684-6.869-11.8-9.941-3.489-2.607-5.707-5.5-6.282-10.036a16.817,16.817,0,0,0-3.669-7.89c-.959-1.2-3.54-1.106-5.4-1.576a14.658,14.658,0,0,0-2.263-.472,16.024,16.024,0,0,1-10.391-5.3c-3.2-3.336-6.4-6.712-9.9-9.731C29.7,64.4,23.709,59.735,17.851,54.914,12.112,50.193,8.119,44.433,6.716,36.951A104.487,104.487,0,0,0,3.73,26.186a33.808,33.808,0,0,0-1.578-3.669l-.817.2c0,1.222.016,2.443,0,3.664C1.212,34.09,1,41.8,1,49.518a50.487,50.487,0,0,0,.758,9.922c1.254,6.207,2.232,12.4,1.713,18.745-.388,4.742-.836,9.48-1.135,14.227-.169,2.69-.136,5.4-.109,8.095a3.954,3.954,0,0,0,2.2,3.773c6.187,3.237,11.429,7.815,16.909,12.052a19.181,19.181,0,0,1,1.7,1.677,7.546,7.546,0,0,1-4.252-.544c-1.983-.9-3.874-2.006-5.784-3.062-4.1-2.269-6.92-1.235-8.1,3.251a43.238,43.238,0,0,0-.707,19.518c2,9.919,3.151,19.773,1.84,29.843-.049.38,0,.772-.012,1.157-.295,6.805-.485,13.617-.928,20.413-.309,4.742-1.09,9.453-1.44,14.194-.794,10.771-1.678,21.544-2.086,32.333a200.015,200.015,0,0,0,.481,21.172c.335,4.884,1.686,5.807,6.537,6.4,1.577.193,3.138.521,4.707.787q.086.475.173.949c-1.274.644-2.508,1.389-3.83,1.912-2.989,1.182-4.832,3.007-5.151,6.478-.257,2.785-1.425,5.473-1.862,8.256A81.645,81.645,0,0,0,1.38,292.512c-.147,10.283-.009,20.57.015,30.855,0,1.277,0,2.554,0,3.832l.77.187a34.42,34.42,0,0,0,1.8-4.12C5.5,318.1,7.074,312.931,8.313,307.689Zm6.918-174.665a22.929,22.929,0,0,1,1.433,14.753C13.808,144.881,13.11,139.1,15.231,133.024ZM12.023,239.415c-2.878-11.1-.4-22,1.5-32.968C15.683,217.523,14.46,228.5,12.023,239.415Z" fill="none" stroke="#000" stroke-miterlimit="10" stroke-width="2"/>
      </g>
    </g>
  </g>
</svg>
