<svg xmlns="http://www.w3.org/2000/svg" viewBox="0 0 393.388 348.704">
  <title>toast-glass_1</title>
  <g id="d2db8b90-a2c6-49f5-8dd4-0836e6fc9657" data-name="Capa 2">
    <g id="55ae4aeb-b6b7-43c7-aacd-13966f038742" data-name="Capa 1">
      <g>
        <path d="M205.19,73.862c9.375-1.953,12.686,1.05,13.256,10.24a24.282,24.282,0,0,0,3.79,11.872c2.973,4.284,7.053,3.843,10.26-.328,2.385-3.1,4.551-2.74,7.036-.462a7.45,7.45,0,0,1,1.618,1.89c5.661,10.725,15.293,15.732,26.141,20.174,9.867,4.039,18.508,2.35,27.52-1.149,1.662-.646,3.117-1.827,5.663-3.36,3.334,8.93,7.042,17.543,9.763,26.457,4.013,13.15,6.385,26.747,2.951,40.323a54.584,54.584,0,0,1-8.654,18.811c-8.7,11.711-22.016,12.427-37.351,4.131-13.724-7.424-22.881-19.684-30.325-33.048C226.783,151.325,208.513,95.46,205.19,73.862Zm56.6,120.688.954-.744L246.212,177.29l-.382.319Zm43.107-58.393-1.635.518q2.664,8.242,5.329,16.485l1.437-.459Q307.459,144.43,304.893,136.157Zm-64.687-25.535-.658,1.728,15.6,6.289.524-1.362Zm4.753,13.805c.207,3.053-.3,5.367.631,6.583a6.018,6.018,0,0,0,5.007,1.812c1.458-.281,2.578-2.315,4.7-4.424-3.142,1.361-5.439,3.106-6.3,2.565C247.468,130.005,246.818,127.657,244.959,124.427Z" fill="#fff" stroke="#211915" stroke-miterlimit="10"/>
        <path d="M123.709,119.861c7.038-3.578,14.17-6.984,21.086-10.785,6.183-3.4,9.659-8.964,11.235-15.782a12.841,12.841,0,0,1,1.4-4.237,7.048,7.048,0,0,1,3.518-2.949c.68-.178,2.148,1.6,2.85,2.751,2.368,3.865,7.092,4.425,9.018.387,1.449-3.041,1.3-6.921,1.507-10.449.127-2.192-.415-4.422-.731-7.319l15.076,2.175c-1.462,5.718-2.859,11.288-4.311,16.844-6.861,26.261-15.06,52.091-26.716,76.643a89.168,89.168,0,0,1-25.98,31.841,41.362,41.362,0,0,1-21.452,8.725C97.782,209.049,87.085,200.864,82,186.878c-3.813-10.477-4.029-21.153-2.274-31.993,2.161-13.342,5.7-26.245,12.216-38.677,6.379,4.894,13.564,5.326,20.975,4.859,11.551-.729,23.176-.812,34.635-2.247a64.839,64.839,0,0,0,18.947-5.982c3.957-1.851,6.99-5.68,9.941-9.338-6.985,6.95-15.911,10.022-24.93,12.324-9.1,2.321-18.493,3.464-27.758,5.123Zm25.841,50.678L123.1,198.115C133.034,194.655,145.149,181.847,149.55,170.539ZM83.415,169.3l5.865-34.394C84.056,145.808,81.631,157.191,83.415,169.3Zm71.26-40.585-.785.53c1.611,1.1,3.3,3.168,4.808,3.039,1.548-.133,3.774-2.226,4.1-3.8.3-1.44-1.529-3.328-2.583-5.328-.323,3.105-.531,5.111-.74,7.117Zm-53.064,2.919-.783-.793c-.333,2.1-1.364,4.439-.768,6.235.436,1.317,3.03,2.682,4.617,2.63,1.443-.047,2.824-1.977,4.272-3.106-2.684.243-5.161,1.2-6.238.359S101.921,133.484,101.611,131.636Z" fill="#fff" stroke="#211915" stroke-miterlimit="10"/>
        <path d="M17.517,318.651l15.693,8.367.7-1.007c-8.1-6.009-17.633-10.3-24.966-19.226L20.4,305.38c-1.983-.743-2.765-1.343-3.426-1.23-3.115.53-6.2,1.256-9.292,1.913,1.439,2.594,2.89,5.181,4.311,7.784.756,1.385,1.459,2.8,2.186,4.2l-2.068,1.479c-3.372-3.283-7.172-6.24-10-9.939-3.053-3.992-1.658-7.5,3.332-7.62,7.738-.188,15.518.832,23.26,1.561a50.573,50.573,0,0,1,7.22,1.668c-1.044,2.829-3.436,6.207-2.579,7.627,1.841,3.052,5.355,5.1,8.184,7.552l1.7-1.814-8.776-6.5c3.7-1.893,6.718-2.622,8.511-4.513,5.1-5.374,11.287-10.515,14.179-17.023,7.754-17.444,14.141-35.5,20.781-53.428,1.932-5.216,2.887-10.794,4.29-16.2l1.629.2q-1.217,8.841-2.434,17.684c2.991-8.151,6.087-15.622,1.917-24.97-5.1-11.433-8.036-23.889-11.258-36.074-1.34-5.067-.375-10.445,3.081-15.694.808,7.361,1.318,14.038,2.322,20.64,1.275,8.381,5.873,15.205,11.543,21.167,6.329,6.656,14.348,8.846,23.321,6.818,4.037-.913,7.964-2.308,12.185-3.556.738,3.553-.577,5.665-3.865,7.206a117.469,117.469,0,0,0-13.6,7.313c-3.509,2.251-5.694,2.254-7.093-2.017-.235-.718-1-1.264-1.914-2.369l5.087-.93-16.819-8.061c3.448,3.734,6.723,7.173,9.874,10.721,3.668,4.13,3.931,8.238,1.221,12.932-10.749,18.623-19.921,37.941-25.813,58.709-1.177,4.148-2.681,8.2-4.149,12.648l-5.987,1.2c6.107,1.308,5.785,4.985,6.318,8.778.658,4.692,2.555,9.211,3.917,13.8l2.086-.512c-.268-1.958-.537-3.915-.923-6.734a37.1,37.1,0,0,1,4.794,2.578c6.763,5.1,13.658,10.065,20.026,15.628,1.725,1.507,2.574,5.043,2.244,7.429-.157,1.134-4,2.369-6.225,2.485-5.894.308-12.223,1.36-14.926-3.921-3.4.393-5.584,1.175-7.54.791A149.685,149.685,0,0,1,20.2,324.149c-1.713-1.076-2.746-3.235-4.094-4.892Zm27.469-8.271c9.06-1.832,15.661-10.8,16.7-21.687C58.467,297.749,53.233,305.229,44.986,310.38Z" fill="none" stroke="#211915" stroke-miterlimit="10"/>
        <path d="M318.782,319.809c.854,3.681.667,7.773,2.2,8.579,4.714,2.474,9.38.265,13.542-2.912L322.569,326.9c1.162-4.947,2.343-9.025,3.053-13.184,1.964-11.491-3.39-21.382-7.053-31.686-6.332-17.809-13.308-35.312-23.061-51.615l1.115-.924,6.836,7.352c-1.06-5.332-3.263-9.078-8.769-11.33-7.473-3.057-14.4-7.491-21.4-11.606-1.173-.689-1.539-2.752-2.933-5.446,3.754.751,5.986,1.053,8.135,1.651,12.876,3.589,22.77-.595,30.452-11.229.983-1.362,3.149-1.869,4.767-2.771.281,1.851,1.143,3.84.739,5.527-1.46,6.1-3.344,12.1-4.96,17.753.681,1.033,1.769,2,2.006,3.146,4.245,20.5,12.46,39.584,20.788,58.633a49.274,49.274,0,0,1,1.673,5.367l-1.3.687q-2.163-2.906-4.324-5.812l-.935.518c1.069,2.137,1.735,4.639,3.282,6.341,4.745,5.218,10.263,9.781,14.648,15.263,3.963,4.955,9.407,5.444,15.174,6.38l-4.637-4.214c7.23-3.1,8.752-2.823,11.055,2.089,5.31-8.395,13.44-7.267,21.22-5.934,5.073.87,6.076,4.239,3.069,8.46a28.287,28.287,0,0,1-5.565,5.634c-3.259,2.568-4.823,2.463-9.174-.313,1.33,7.94-4.46,10.537-9.574,12.707C353.756,333.915,340.37,338.9,327,343.874c-2.27.845-4.985.489-7.835.714-5.417,3.912-12.329,3.428-18.941,3.422-2.427,0-6.664-1.736-6.874-3.153a9.869,9.869,0,0,1,3.058-7.681C303.713,330.974,311.522,325.364,318.782,319.809Zm-19.3,20.239c1.952,6.2,27.35,3.089,37.677-5.118C324.864,337.88,312.894,343.643,299.48,340.048Zm-.855-126.279.714.914,4.867-1.886c.277,1.489.514,2.77,1,5.4.937-4.618,1.576-7.765,2.351-11.588Z" fill="none" stroke="#211915" stroke-miterlimit="10"/>
        <path d="M218.205,71.635c19.365-5.889,39.124-13.56,56.847-28,.251,2.912.451,5.236.581,6.746,1.517,1.32,3.453,2.264,4.227,3.8,6.675,13.2,13.258,26.454,19.628,39.806,4.724,9.9,9.352,19.861,13.473,30.018,1.446,3.563,1.253,7.79,1.828,11.854,1.224,2.169,3.322,4.58,4.022,7.345,3.947,15.579,4.592,31.223-.221,46.8a26.465,26.465,0,0,1-1.136,2.648l-1.534.44c-.532-1.506-1.84-3.235-1.481-4.485,6.194-21.578,2.072-42.151-5.8-62.376a119.75,119.75,0,0,0-6.329-14.636,14.125,14.125,0,0,0-6.421-6.084c-10.529-4.163-21.327-4.351-32.282-1.138-10.342,3.034-12.711,1.815-18.533-7.231a21.311,21.311,0,0,0-6.029-6.366c-3.186-2.051-6.328-1.189-8.61,2.139-2.575,3.755-5.031,3.876-7.312-.11-1.332-2.326-1.574-5.3-2.179-8.011C220.018,80.629,219.2,76.447,218.205,71.635Zm29.128,4.1c3.648,3.159,6.836,6.24,2.093,8.516-4.535,2.176-4.7-2.448-5.645-6.081-2.277,4.616-.461,6.945,2.726,8.283,3.238,1.359,5.632-.478,6.736-3.35C254.676,79.382,252.839,77.12,247.333,75.74Zm37.33.266,1.671-.8-9.477-18.822-1.572.786Z" fill="none" stroke="#211915" stroke-miterlimit="10"/>
        <path d="M70.758,159.741c2.28-9.149,3.671-18.659,7.182-27.308,2.019-4.971,2.335-10.294,4.746-15.039,2.634-5.187,4.982-10.518,7.483-15.773s5-10.509,7.561-15.73c6.856-13.953,13.749-27.888,21.263-43.12,4.245,7.034,15.758,7.889,11.674,19.575,1.6-2.073,3.193-4.146,5.231-6.791,7.81,5.53,19.658,5.82,22.237,18.166l1.306-.424c-.589-2.223-1.179-4.446-2.063-7.781l13.5,4.8c.416,4.267,1.209,8.225,1.023,12.136-.1,2.147-1.854,4.216-2.861,6.32a34.837,34.837,0,0,1-3.848-3.666c-2.429-3.108-6.407-3.322-8.8.183a29.952,29.952,0,0,0-3.459,8.189c-2.114,6.97-6.075,11.986-13.728,12.57-8.277.631-16.6,1.16-24.891.993-21.039-.424-21.844-.371-29.331,18.9-3.29,8.467-5.328,17.448-7.563,26.289-1.341,5.308-1.019,5.389-5.34,8.139Zm34.4-80.814,1.758.8q5.151-11.3,10.3-22.595l-1.679-.766Zm42.052,7.254c-5.127,3.575-6.407,2.911-7.04-3.1-2.479,2.536-2.546,4.969.3,6.58C143.257,91.245,145.887,90.7,147.209,86.181Z" fill="none" stroke="#211915" stroke-miterlimit="10"/>
        <path d="M213.573,67.453c3.979-5.27,6.589-10.879,10.975-13.97,5.073-3.575,11.706-4.94,17.668-7.25,1.168-.452,2.343-.9,3.547-1.242,6.986-1.961,13.961-3.971,20.994-5.752,1.263-.319,2.778.355,4.3.589C267.736,48.389,227.872,67.86,213.573,67.453Z" fill="none" stroke="#211915" stroke-miterlimit="10"/>
        <path d="M181.517,59.6c-4.1,5.369-9.553,7.461-14.864,5.247-11.46-4.777-22.9-9.646-34.083-15.023-3.959-1.9-7.155-5.392-10.7-8.157l.723-1.675c1.678-.212,3.437-.862,5.021-.568a181.4,181.4,0,0,1,51.764,18.462A15.777,15.777,0,0,1,181.517,59.6Zm-32.1-10.64.375-1.365L131.5,42.427l-.373,1.363Z" fill="none" stroke="#211915" stroke-miterlimit="10"/>
        <path d="M166.434,159.229c1.1,9.145-12.975,31.48-19.708,32.8-3.028,9.69-11.35,13.023-18.075,17.98l-1.489-.825c.7-1.637.942-3.9,2.18-4.815,18.419-13.582,31-31.339,38.218-52.944Q178.064,120,188.292,88.48c1.172-3.611,1.59-7.462,2.53-11.158a32.123,32.123,0,0,1,1.892-4.529l1.306.337a11.886,11.886,0,0,1-.032,3c-5.414,20.038-10.805,40.083-16.431,60.062-.7,2.482-2.7,4.6-4.484,7.527C174.373,148.51,171.166,157.147,166.434,159.229Z" fill="none" stroke="#211915" stroke-miterlimit="10"/>
        <path d="M177.121,67.316c8.5-5.3,9.093-8.2,3.489-17.174-2.964-4.747-2.687-8.923.769-11.6,3.475-2.69,7.394-1.974,11.468,2.094C200.3,48.079,199,64.8,189.861,69.2c-3.44,1.656-8.54-.136-12.883-.357Z" fill="none" stroke="#211915" stroke-miterlimit="10"/>
        <path d="M227.485,155.929a16.88,16.88,0,0,1-1.718.967,20.073,20.073,0,0,1-2.1.609c-.511-1.976-1.322-3.713-1.352-5.464-.164-9.646-7.939-16.139-9.975-25.217-3.989-17.786-9.235-35.29-13.96-52.91L199.7,72.9c.923.854,2.5,1.6,2.672,2.579C207.138,103.35,218.039,129.305,227.485,155.929Z" fill="none" stroke="#211915" stroke-miterlimit="10"/>
        <path d="M297.83,109.7c-6.9,9.649-25.981,7.732-39.669-.456C271.656,105.255,284.663,103.379,297.83,109.7Z" fill="none" stroke="#211915" stroke-miterlimit="10"/>
        <path d="M228.744,158.644c6.24,17.245,17.3,30.925,31.149,42.5,1.9,1.587,4.24,2.649,6.094,4.276,1,.878,1.4,2.439,2.078,3.691-1.545.1-3.5.858-4.572.2a82.859,82.859,0,0,1-25.734-25.316,182.294,182.294,0,0,1-10.512-18.635c-.914-1.817-.336-4.385-.443-6.608Z" fill="none" stroke="#211915" stroke-miterlimit="10"/>
        <path d="M137.066,109.216c-10.438,9.476-36.035,11.722-43.565,3.59C107.871,106.657,122.868,112.489,137.066,109.216Z" fill="none" stroke="#211915" stroke-miterlimit="10"/>
        <path d="M204.848,69.648c-.483-7.379.758-14.052,4.945-19.657a14.972,14.972,0,0,1,7.615-4.88c3.492-.969,5.673,2.148,4.126,5.537-.94,2.059-2.677,3.743-3.96,5.659-1.732,2.587-4.515,5.117-4.805,7.884C212.221,69.426,209.4,69.928,204.848,69.648Z" fill="none" stroke="#211915" stroke-miterlimit="10"/>
        <path d="M180.954,11.988a6.8,6.8,0,0,1,6.776,7.03,7.154,7.154,0,0,1-7.173,6.759,7.356,7.356,0,0,1-6.636-6.87A7.164,7.164,0,0,1,180.954,11.988Z" fill="none" stroke="#211915" stroke-miterlimit="10"/>
        <path d="M220.465,28.71c.043-3.812,1.8-5.924,5.371-6,3.267-.069,5.42,1.758,5.542,5.049.134,3.588-2.287,5.44-5.564,5.725C222.45,33.778,220.639,31.85,220.465,28.71Z" fill="none" stroke="#211915" stroke-miterlimit="10"/>
        <path d="M211.294,4.994c-2.91,1.787-4.774,3.829-6.1,3.526-1.735-.4-3.046-2.649-4.539-4.1,1.513-1.4,3-3.878,4.548-3.916C206.805.46,208.47,2.778,211.294,4.994Z" fill="none" stroke="#211915" stroke-miterlimit="10"/>
        <path d="M170.764,40.553c-2.682,1.184-4.207,2.467-5.356,2.189-1.107-.268-2.064-2.057-2.557-3.376-.137-.366,1.814-2.2,2.457-2.032C166.841,37.739,168.166,38.936,170.764,40.553Z" fill="none" stroke="#211915" stroke-miterlimit="10"/>
        <path d="M201.622,28.265l4.082,2.308c-.163-1.545-.327-3.089-.679-6.422,1.609,2.492,3.561,4.272,3.223,5.3a5.218,5.218,0,0,1-4.135,2.888c-1.194-.083-2.229-2.426-3.335-3.77Z" fill="none" stroke="#211915" stroke-miterlimit="10"/>
        <path d="M261.786,194.55,245.83,177.609l.382-.319,16.528,16.516Z" fill="none" stroke="#211915" stroke-miterlimit="10"/>
        <path d="M304.893,136.157q2.565,8.272,5.131,16.544l-1.437.459q-2.664-8.243-5.329-16.485Z" fill="none" stroke="#211915" stroke-miterlimit="10"/>
        <path d="M240.206,110.622l15.47,6.655-.524,1.362-15.6-6.289Z" fill="none" stroke="#211915" stroke-miterlimit="10"/>
        <path d="M244.959,124.427c1.859,3.23,2.509,5.578,4.034,6.536.862.541,3.159-1.2,6.3-2.565-2.119,2.109-3.239,4.143-4.7,4.424a6.018,6.018,0,0,1-5.007-1.812C244.66,129.794,245.166,127.48,244.959,124.427Z" fill="none" stroke="#211915" stroke-miterlimit="10"/>
        <path d="M149.55,170.539c-4.4,11.308-16.516,24.116-26.455,27.576Z" fill="none" stroke="#211915" stroke-miterlimit="10"/>
        <path d="M83.415,169.3c-1.784-12.111.641-23.494,5.865-34.394Z" fill="none" stroke="#211915" stroke-miterlimit="10"/>
        <path d="M154.675,128.717l4.8,1.561c.209-2.006.417-4.012.74-7.117,1.054,2,2.885,3.888,2.583,5.328-.33,1.571-2.556,3.664-4.1,3.8-1.5.129-3.2-1.937-4.808-3.039Z" fill="none" stroke="#211915" stroke-miterlimit="10"/>
        <path d="M101.611,131.636c.31,1.848.011,4.476,1.1,5.325s3.554-.116,6.238-.359c-1.448,1.129-2.829,3.059-4.272,3.106-1.587.052-4.181-1.313-4.617-2.63-.6-1.8.435-4.131.768-6.235Z" fill="none" stroke="#211915" stroke-miterlimit="10"/>
        <path d="M44.986,310.38c8.247-5.151,13.481-12.631,16.7-21.687C60.647,299.583,54.046,308.548,44.986,310.38Z" fill="none" stroke="#211915" stroke-miterlimit="10"/>
        <path d="M299.48,340.048c13.414,3.595,25.384-2.168,37.677-5.118C326.83,343.137,301.432,346.252,299.48,340.048Z" fill="none" stroke="#211915" stroke-miterlimit="10"/>
        <path d="M298.625,213.769l8.934-7.162c-.775,3.823-1.414,6.97-2.351,11.588-.488-2.628-.725-3.909-1-5.4l-4.867,1.886Z" fill="none" stroke="#211915" stroke-miterlimit="10"/>
        <path d="M247.333,75.74c5.506,1.38,7.343,3.642,5.91,7.368-1.1,2.872-3.5,4.709-6.736,3.35-3.187-1.338-5-3.667-2.726-8.283.944,3.633,1.11,8.257,5.645,6.081C254.169,81.98,250.981,78.9,247.333,75.74Z" fill="none" stroke="#211915" stroke-miterlimit="10"/>
        <path d="M284.663,76.006l-9.378-18.832,1.572-.786,9.477,18.822Z" fill="none" stroke="#211915" stroke-miterlimit="10"/>
        <path d="M105.157,78.927l10.38-22.56,1.679.766q-5.151,11.3-10.3,22.595Z" fill="none" stroke="#211915" stroke-miterlimit="10"/>
        <path d="M147.209,86.181c-1.322,4.521-3.952,5.064-6.743,3.481-2.843-1.611-2.776-4.044-.3-6.58C140.8,89.092,142.082,89.756,147.209,86.181Z" fill="none" stroke="#211915" stroke-miterlimit="10"/>
        <path d="M149.412,48.96l-18.284-5.17.373-1.363L149.787,47.6Z" fill="none" stroke="#211915" stroke-miterlimit="10"/>
      </g>
    </g>
  </g>
</svg>
