<svg xmlns="http://www.w3.org/2000/svg" viewBox="0 0 469.467 101.412">
  <title>top-ornament</title>
  <g id="2ab9294f-5706-4619-a068-b125a6e0312a" data-name="Capa 2">
    <g id="8a8489e3-449e-4bc8-ac15-d7c7a87eab9b" data-name="Capa 1">
      <g>
        <path d="M88.861,60.594c-2.939,1.524-5.471,2.723-7.891,4.117a38.921,38.921,0,0,1-13.263,4.507c-1.165.194-2.234.391-2.5-1.3a1.591,1.591,0,0,0-1.288-.856c-.428.027-1.2.687-1.164,1.006.2,2.08-1.233,1.707-2.47,1.926-2.913.514-6.03.7-8.617,1.954-1.974.951-3.524,3.151-4.809,5.095-5.621,8.506-13.035,14.216-23.352,15.648a14.318,14.318,0,0,1-1.944.011c-.064-.379-.2-.649-.122-.8,3.421-6.564,7.4-12.762,14.227-16.2,2.694-1.355,5.976-1.526,8.971-2.309A14.24,14.24,0,0,0,48.92,71.91c1.12-.742,1.088-2.031-.555-2.429-7.647-1.851-15-4.905-23.184-4.4-6.77.415-12.388-3.053-17.33-7.3A47,47,0,0,1,.734,49.853C-.7,47.9.014,46.942,2.448,47.157c12.236,1.083,22.963,5.44,31.6,14.476a11.532,11.532,0,0,0,4.736,2.712c6.285,2,12.684,3.526,19.37,2.932,1.7-.151,3.75.212,4.276-2.475,3.563,2.824,7.081.886,10.222-.308,4.5-1.709,8.67-4.281,12.963-6.521,2.183-1.139,4.36-2.3,6.465-3.575.531-.322.774-1.12,1.15-1.7a6.218,6.218,0,0,0-1.783-.611,31.353,31.353,0,0,0-5.588.14c-7.679,1.225-14.569-.568-21.148-4.623-5.2-3.2-8.773-7.78-12.133-12.646A11.349,11.349,0,0,1,51.833,33c2.687.391,5,.635,7.274,1.077,6.064,1.178,12.274,1.806,17.916,4.64.375.188.948-.019,1.428-.042a6.121,6.121,0,0,0-.148-1.685c-.818-2.151-1.746-4.261-2.571-6.41a7.188,7.188,0,0,1-.2-1.726c7.653,1.8,14.194,10.409,15.847,18.978a19.15,19.15,0,0,0-2.509-.981,1.771,1.771,0,0,0-1.373.31c-.183.152-.054.853.115,1.225,1.144,2.521,4,2.96,5.7.68,3.789,2.542,7.14.567,10.538-1.225,2.706-1.428,5.463-2.76,8.166-4.193a10.089,10.089,0,0,0,1.614-1.331,20.458,20.458,0,0,0-1.571-1.638,11.493,11.493,0,0,0-1.62-.967l1-2.883c2.259,4.636,5.565,5.1,9.965,3.775,3.454-1.04,7.22-1.03,10.836-1.563a12.175,12.175,0,0,0,2.35-.852c-.4-.758-.744-1.548-1.2-2.269-2.455-3.886-6.1-6.058-10.313-7.739-5.913-2.356-9.015-7.457-10.812-13.206-1.034-3.311-1.16-6.907-1.659-10.38-.045-.312.175-.662.371-1.336,4.179,2.549,8.105,5.057,11.247,8.554a31.345,31.345,0,0,1,6.818,12.22c.6,2.042.746,4.216,1.339,6.259a2.969,2.969,0,0,0,3.861,2.256c.2.524.36,1.006.576,1.459,1.265,2.657,2.851,4.743,6.184,5.1,11.093,1.175,21.421,5.067,31.759,9.012,5.479,2.091,11.207,3.535,16.839,5.212a5.259,5.259,0,0,0,1.827-.143,5.2,5.2,0,0,0-.605-1.738,66.391,66.391,0,0,0-6.465-7.131c-1.615-1.407-3.855-2.121-5.858-3.053-1.258-.585-2.594-1-3.895-1.493l.093-.581a16.061,16.061,0,0,1,1.931.213,26.5,26.5,0,0,0,2.575.719,2.56,2.56,0,0,0,1.79-.431c.221-.186.018-1.137-.247-1.6A39.514,39.514,0,0,0,177,32.031c-5.762-6.766-6.329-14.6-4.9-22.818a52.978,52.978,0,0,1,2.368-7.7c.192-.568.671-1.351,1.125-1.432s1.215.469,1.557.945a33.379,33.379,0,0,1,5.866,26.541c-.337,1.826-1.158,3.59-1.291,5.417-.117,1.606-.064,3.574.756,4.835,2.448,3.767,5.31,7.267,8.01,10.871l1.168-.487a9.225,9.225,0,0,0-.534-2.989c-3.129-5.484-2.5-11.217-1.355-17.011a2,2,0,0,1,.254-.617c.07-.119.218-.191.818-.683,1.25,1.89,2.788,3.616,3.642,5.631a14.046,14.046,0,0,1-.272,12.342c-1.664,3.281-.866,5.611,2.091,7.978a16.075,16.075,0,0,0,9.9,3.534c8.218.269,16.271-.368,23.907-3.74,1.353-.6,2.555-.45,3.274.9.734,1.377.187,2.446-1.173,3.123a33.519,33.519,0,0,1-13.693,3.783c-3.563.134-6.3,1.014-8.018,4.489-.727,1.471-2.385,2.483-3.62,3.7l-.634-.675c1.4-1.362,2.882-2.659,4.176-4.12a2.865,2.865,0,0,0,.643-2.174c-.082-.392-1.186-.794-1.838-.808-7.129-.152-14.186-.914-20.891-3.4-4.042-1.5-7.446.037-11.025,1.294a33.564,33.564,0,0,1-5.756,1.787c-2.75.433-3.805,2.055-3.989,4.546-.3,4.091-2.3,7.392-4.973,10.279-3.517,3.8-8.189,5.648-13.042,7.023-2.072.586-4.216.929-6.338,1.325-1.195.223-2.012-.034-1.421-1.533,2.037-5.168,4.518-10.025,8.494-14.068,3.349-3.405,7.518-5.014,11.925-6.278,1.7-.487,3.417-.916,5.541-1.483-.691-.641-1.056-1.284-1.493-1.338-3-.371-5.954-1.161-9.006.2-5.488,2.44-11.083,1.893-16.607-.039-1.536-.537-3.014-1.238-4.81-1.985,1.623-2.245,3.905-3.019,6.047-3.823,4.945-1.856,9.546-.886,14.162,1.588,6.673,3.577,13.792,3.869,21,1.643.555-.171.972-.792,1.453-1.2-.507-.444-.942-1.08-1.533-1.3-7.257-2.725-14.474-5.583-21.833-8.006-5.239-1.724-10.763-1.647-16.223-1.078-1.735.18-2.662,1.354-3.03,3.126a27.639,27.639,0,0,1-1.442,3.961l-.613-.224a14.754,14.754,0,0,0,.822-3.284,9.7,9.7,0,0,0-.864-2.836l3.323-1.707-.011-.574a12.666,12.666,0,0,0-2.343-.42,59.164,59.164,0,0,0-23.092,4.791c-4.147,1.769-6.846,5.14-5.709,10.016.93,3.99-.826,7.291-3.4,10.2-.345.39-1.083.834-1.442.7-.4-.144-.739-.894-.809-1.419-.486-3.68-.057-7.134,2.531-10.079,1.231-1.4,2.336-2.931,1.384-5.335-4.129,2.088-8.426,3.752-11.388,7.293C90.273,62.286,90.969,68.256,94,71.7c3.445,3.919,4.933,8.362,3.621,13.448a19.527,19.527,0,0,1-2.959,5.77c-3.315-6.207-5.8-12.327-3.961-19.338a7.151,7.151,0,0,0-.144-3.433c-.3-1.162-1.269-1.29-2.028-.372-1.709,2.066-3.414,4.149-4.915,6.364A4.719,4.719,0,0,0,83,77.1c1.127,9.793-3.254,16.884-11,22.177-1.7,1.159-3.987,1.446-6,2.134l-.648-.516c.388-1.334.737-2.68,1.171-4,1-3.039,2.05-6.062,3.066-9.1,1.6-4.766,4.867-8.126,8.972-10.817a16.626,16.626,0,0,0,2.78-2.235,1.656,1.656,0,0,0,.251-1.569,1.693,1.693,0,0,0-1.544-.324,31.367,31.367,0,0,0-5.767,2.319,8.22,8.22,0,0,0-2.924,3.182c-3.228,6.187-8.416,9.481-15.125,10.617a11.333,11.333,0,0,1-2.771-.282c3.71-6.719,7.885-12.216,15.706-13.614,2.106-.377,4.115-1.275,6.193-1.844,2.217-.608,4.5-.99,6.682-1.7a6.3,6.3,0,0,0,3.246-1.975,58.18,58.18,0,0,0,3.557-6.966C89,62.241,88.861,61.748,88.861,60.594Zm109.9-4.01c-1.148-.733-1.736-1.393-2.33-1.4-.507,0-1.022.742-1.534,1.156.528.506.985,1.253,1.607,1.435C196.931,57.9,197.588,57.239,198.761,56.584Z"/>
        <path d="M295.06,38.792c-1.031.717-1.976,1.845-3.108,2.082-6.445,1.35-9.843,6.355-13.579,10.975a4.145,4.145,0,0,0-.446,1.369c.529.1,1.124.4,1.579.263,6.405-1.983,12.894-3.752,19.157-6.119,9.661-3.653,19.333-7.114,29.69-8.184,3.979-.411,5.542-3.321,6.718-6.592,3.193-.108,4.891-1.861,5.09-5.5.428-7.843,4.763-13.476,10.367-18.339a70.775,70.775,0,0,1,6.55-4.692,1.67,1.67,0,0,1,1.389-.279c.291.162.431.9.366,1.344a80.343,80.343,0,0,1-1.419,8.607c-1.876,7.254-5.745,13.028-13.234,15.389-4.292,1.353-6.56,4.713-9.049,7.929-.762.986-.411,1.782.985,1.989,4.718.7,9.43,1.446,14.14,2.2,3.791.605,5.4-.315,7.643-4.592l1.15,2.852-3.5,2.587a33.369,33.369,0,0,0,3.657,2.6c3.024,1.616,6.139,3.062,9.206,4.6a7.051,7.051,0,0,0,6.46.409,2.181,2.181,0,0,1,1.773.2,3.276,3.276,0,0,0,4.946-1.321,4.991,4.991,0,0,0,.145-1.484,6.39,6.39,0,0,0-1.643-.069,14.777,14.777,0,0,0-2.175.842c3.7-11,9.289-17.733,16.165-19-.77,2.319-1.48,4.343-2.108,6.391-.348,1.131-.56,2.3-.833,3.457,1.091-.288,2.183-.57,3.272-.864,3.585-.969,7.138-2.08,10.761-2.874,3.423-.75,6.916-1.184,10.384-1.714a5.508,5.508,0,0,1,1.458.169,4.462,4.462,0,0,1-.245,1.609c-4.947,8.305-12,14.122-21.306,16.692-3.422.946-7.233.557-10.869.628-2.306.044-4.617-.235-6.927-.257-.483,0-.971.482-1.457.743.277.476.436,1.189.847,1.393C384.122,57.744,390.4,62.8,398.131,65c1.006.287,2.015.561,3.03.812,2.486.614,4.843.651,6.638-1.832-.044.948-.367,1.9-.037,2.278a3.51,3.51,0,0,0,2.163.92,41.219,41.219,0,0,0,15.094-1.22c1.442-.391,2.888-.772,4.343-1.111a14.5,14.5,0,0,0,7.121-4.258c8.443-8.473,18.943-12.471,30.718-13.4,2.162-.17,2.983,1.014,1.551,2.7a67.184,67.184,0,0,1-9.619,9.784,24.752,24.752,0,0,1-17.567,5.537c-4.906-.413-9.432,1.175-14.019,2.5-2.152.62-4.324,1.173-6.487,1.755-1.6.43-1.8,1.424-.624,2.37a5.842,5.842,0,0,0,3.31,1.473,21.3,21.3,0,0,1,14.362,5.32c4.042,3.369,6.747,7.741,9.322,12.221.978,1.7-.071,1.961-1.407,1.914-4.724-.168-8.813-2.154-12.647-4.674a33.959,33.959,0,0,1-11.332-11.84c-1.975-3.524-5.065-5.836-9.428-5.874-1.338-.011-2.674-.28-4.012-.419-1.077-.112-2.129-.123-1.9-1.774.05-.356-.8-1.134-1.283-1.178a1.72,1.72,0,0,0-1.332,1.061c-.24,1.605-1.15,1.322-2.285,1.192-6.86-.786-12.7-4.117-18.605-7.311-.753-.407-1.571-.694-2.793-1.225a10.067,10.067,0,0,0,.315,2.071c.611,1.441,1.344,2.829,1.978,4.261,1.243,2.81,2.894,4.306,6.4,4.836,5.314.8,10.461,2.882,15.594,4.663,3.594,1.247,5.929,4.173,8.1,7.147,1.12,1.534,2.134,3.145,3.323,4.911-3.1.941-5.677.143-8.081-1-4.55-2.16-8.305-5.194-10.449-9.992a6.44,6.44,0,0,0-2.866-2.591,29.4,29.4,0,0,0-5.2-1.978,5.368,5.368,0,0,0-1.988.2c.207.577.245,1.359.652,1.695,1.6,1.329,3.3,2.552,5,3.752,5.069,3.567,6.773,9.094,8.54,14.582.788,2.451,1.51,4.922,2.306,7.529-3.684.478-6.408-.9-8.87-2.962-6.455-5.41-9.707-12.2-8.678-20.728.291-2.414-1.327-3.857-2.512-5.522-.775-1.088-1.793-2-2.586-3.081-.906-1.229-1.8-1.841-3.461.341,0-2.266.006-3.723,0-5.18A7.354,7.354,0,0,0,374.151,57c-2.494-1.494-4.975-3.01-7.491-4.465-1.4-.811-2.116-.1-1.805,1.262a8.891,8.891,0,0,0,1.628,3.342,12.171,12.171,0,0,1,2.6,9.652,17.949,17.949,0,0,1-.82,2.531A11.985,11.985,0,0,1,363.446,58.3a18.363,18.363,0,0,0-.064-4.854c-.587-2.951-3-4.294-5.5-5.451a55.379,55.379,0,0,0-23.713-4.9,10.105,10.105,0,0,0-1.956.387l-.051.58,4.015,1.979c-3.9,1.383.245,4.184-1.25,6.3a33.449,33.449,0,0,1-1.54-4.145,3.484,3.484,0,0,0-3.241-3.09c-7.466-1.105-14.535.188-21.473,2.955-5.255,2.095-10.621,3.911-15.915,5.912a8.675,8.675,0,0,0-1.852,1.338c.631.532,1.2,1.42,1.905,1.533a57.8,57.8,0,0,0,8.354.9,27.79,27.79,0,0,0,14.1-3.622c6.446-3.545,12.534-1.493,18.334,3.249a85.508,85.508,0,0,1-8.873,2.9c-4.514.971-9.026.888-13.3-1.374-2.214-1.172-7.968-.29-9.924,1.746,14.1,1.577,22.349,9.676,26.352,22.67-.215.134-.472.437-.692.412-6.834-.768-13.4-2.392-18.814-6.912-3.645-3.043-6.2-6.833-6.576-11.774-.191-2.533-1.361-3.9-4.031-4.514-3.617-.829-7.068-2.354-10.648-3.379a7.506,7.506,0,0,0-3.9-.057c-7.568,2.121-15.178,3.827-23.1,3.832-.821,0-1.643,1.133-2.563,1.814-1.039-1.4-3.073-1.814-5.372-2.214a143.119,143.119,0,0,1-14.069-3.362,4.068,4.068,0,0,1-2.312-2.438c-.489-1.632,1.4-2.644,3.408-2.074,3.933,1.119,7.83,2.7,11.843,3.12A73.278,73.278,0,0,0,267.3,55.8c2.614-.315,5.225-2.5,7.362-4.385,1.97-1.735,1.807-4.309.519-6.622-3.391-6.091-.83-12.946,3.135-17.3a2.975,2.975,0,0,1,.732-.384c.267.434.679.82.75,1.262.96,5.947,1.767,11.89-1.839,17.36a2.342,2.342,0,0,0-.439,1.021,7.262,7.262,0,0,0,.164,1.447c.469-.091,1.155-.015,1.374-.3,2.9-3.765,5.836-7.516,8.517-11.437.548-.8.39-2.382.055-3.444C284,21.537,285.2,10.792,292.32.905A2.077,2.077,0,0,1,293.7,0a1.733,1.733,0,0,1,1.215,1.048c1.763,5.933,3.8,11.825,2.86,18.2-.7,4.805-2.052,9.226-5.509,12.939-1.624,1.745-2.565,4.151-3.7,6.32-.71,1.361-.134,2.047,1.367,1.7,1.734-.4,3.441-.922,5.16-1.391ZM274.82,56.83l-.023-.755c-.616-.321-1.3-.98-1.828-.871-.57.118-.991.952-1.478,1.474.515.407,1.027,1.132,1.547,1.139C273.628,57.824,274.226,57.187,274.82,56.83Z"/>
        <path d="M295.1,38.811c1.941-1.673,4.255-3.068,5.755-5.072,4.7-6.289,10.963-9.209,18.627-9.534,1.671-.07,2.132.484,1.346,2.159-3.426,7.3-9.116,11.185-17.148,11.719-2.871.192-5.735.478-8.612.715C295.06,38.792,295.1,38.811,295.1,38.811Z"/>
        <path d="M171.642,37.675c-10.962,1.7-18.641-2.228-23.2-11.489-.857-1.738.177-2.111,1.657-2.043,7.6.345,13.8,3.369,18.384,9.543C169.451,34.995,170.5,36.243,171.642,37.675Z"/>
        <path d="M334.886,30.679a76.661,76.661,0,0,1-4.03-8.482c-1.553-4.571-.312-8.986,1.78-13.154.482-.961,1.443-1.34,1.922.027a113.5,113.5,0,0,1,3.558,10.988c.92,3.841-1.37,7.07-2.519,10.5Z"/>
        <path d="M133.939,30.072c-2.748-4.515-3.819-9.2-1.888-14.268.824-2.16,1.8-4.264,2.765-6.368.194-.424.742-1.083.951-1.023a2.252,2.252,0,0,1,1.251,1.027C139.836,14.858,140.864,23.609,133.939,30.072Z"/>
        <path d="M377.749,68.752c1.681,5.287,2.141,9.985.292,14.735-.784,2.014-1.477,4.064-2.266,6.076a5.612,5.612,0,0,1-.876,1.186,5.625,5.625,0,0,1-1.225-1.071c-2.9-4.655-3.561-12.317,1.3-17.445C375.868,71.285,376.61,70.19,377.749,68.752Z"/>
        <path d="M200.274,71.847c-1.691,3.369-4.107,5.478-7.692,6.046-2.759.437-5.189-.628-5.624-2.425-.457-1.889,1.36-4.173,4.028-4.88A10.862,10.862,0,0,1,200.274,71.847Z"/>
        <path d="M269.292,72a10.09,10.09,0,0,1,11.48-.147c1.247.913,2.276,2.209,1.508,3.574a5.315,5.315,0,0,1-3.273,2.466C274.833,78.547,271.273,76.21,269.292,72Z"/>
        <path d="M106.224,28.746c-1.978-2.559-4.655-3.662-7.958-4.109-2.507-.34-3.934-2.6-4.543-5.044-.465-1.868.866-3.155,2.875-2.9a6.99,6.99,0,0,1,5.516,3.773C103.561,23.187,104.861,25.983,106.224,28.746Z"/>
        <path d="M363.216,28.85c1.373-2.889,2.606-5.547,3.9-8.177a7.309,7.309,0,0,1,5.158-3.926c2.422-.573,4.08,1.172,3.246,3.477-.913,2.521-2.568,4.518-5.411,4.7A8.749,8.749,0,0,0,363.216,28.85Z"/>
        <path d="M421.926,40.624a32.263,32.263,0,0,1,.965-4.595,18.366,18.366,0,0,1,2.365-4.715,3.629,3.629,0,0,1,4.944-1.12,3.6,3.6,0,0,1,.558,4.854,15.9,15.9,0,0,1-4.3,3.653A28.616,28.616,0,0,1,421.926,40.624Z"/>
        <path d="M46.9,40.172a41.5,41.5,0,0,1-5.116-2.053,9.715,9.715,0,0,1-2.926-2.653c-1.3-1.755-1.005-4.266.375-5.273,1.486-1.086,3.5-.538,5.1,1.263C46.476,33.872,46.549,36.84,46.9,40.172Z"/>
        <path d="M349.981,55.432a20.561,20.561,0,0,1,4.213.923,11.158,11.158,0,0,1,3.722,2.613,2.885,2.885,0,0,1-.071,4.238,4.683,4.683,0,0,1-4.043.394C350.458,62.025,349.4,60.3,349.981,55.432Z"/>
        <path d="M119.207,55.451c.767,3.967-.278,6.565-3.259,8.111-1.456.754-3.057,1.148-4.33-.237a3.165,3.165,0,0,1-.086-4.316,9.864,9.864,0,0,1,3.408-2.65A19.293,19.293,0,0,1,119.207,55.451Z"/>
        <path d="M108.664,38.584c-1.271.5-2.515,1.09-3.82,1.469a6.027,6.027,0,0,1-6.405-1.528,3.576,3.576,0,0,1-.794-2.99,3.218,3.218,0,0,1,2.428-1.853,9.606,9.606,0,0,1,4.9,1.552c1.287.968,1.951,2.766,2.889,4.2Z"/>
        <path d="M361.5,38.8c.893-1.138,1.891-2.412,2.892-3.683a1.412,1.412,0,0,1,.172-.142c1.838-1.639,4.859-1.969,6.361-.662a2.622,2.622,0,0,1,.562,3.6c-1.128,1.983-4.933,3.1-7.176,2.119C363.192,39.546,362.075,39.052,361.5,38.8Z"/>
        <path d="M420.9,54.748a19.751,19.751,0,0,1,1.577-4,5.6,5.6,0,0,1,2.914-2.479,4.727,4.727,0,0,1,3.69,1.151c1.081,1.077.423,2.645-.768,3.479a11.136,11.136,0,0,1-3.56,1.561A22.258,22.258,0,0,1,420.9,54.748Z"/>
        <path d="M47.557,55.039a38.25,38.25,0,0,1-6.252-2.072,2.576,2.576,0,0,1-.82-3.908c1.073-1.441,2.637-1.413,4.224-.58,2.348,1.231,2.715,3.506,3.288,5.689Z"/>
        <path d="M336.508,54.406c1.589.741,2.533,1.15,3.446,1.618.59.3,1.438.565,1.644,1.063a15.367,15.367,0,0,1,1.141,4.274c.038.375-1.478,1.391-1.735,1.232a8.891,8.891,0,0,1-3.314-2.85C336.938,58.325,336.932,56.513,336.508,54.406Z"/>
        <path d="M132.45,55.379c.036,2.262-.038,4.544-1.81,6.157a3.707,3.707,0,0,1-3.081.75c-1.356-.455-1.488-1.86-1-3.228C127.407,56.662,129.364,55.374,132.45,55.379Z"/>
        <path d="M52.544,57.628l1.585-4.563C53.6,58.2,58.414,60.156,60.6,63.926Z"/>
        <path d="M409.374,63.324c2.074-3.369,6.184-5.274,5.931-9.306l1.791,3.487Z"/>
        <path d="M53.131,50.456c-.852-1.673-1.507-3.067-2.26-4.407-.719-1.279-1.54-2.5-2.337-3.782C50.755,43.245,53.256,47.563,53.131,50.456Z"/>
        <path d="M258.688,63.987c2.041,1.809,3.8,3.369,5.559,4.93C262.47,69.112,259.8,66.872,258.688,63.987Z"/>
      </g>
    </g>
  </g>
</svg>
